<svg width="42" height="56" fill="none" xmlns="http://www.w3.org/2000/svg"><path d="M13.423 33.855a.82.82 0 0 0-.82-.82H4.648a.82.82 0 0 0-.82.82v5.304c0 .453.367.82.82.82h7.955a.82.82 0 0 0 .82-.82v-5.303Zm-1.64 4.483H5.468v-3.662h6.315v3.662ZM32.933 38.212h4.419a.82.82 0 1 0 0-1.64h-4.42a.82.82 0 1 0 0 1.64ZM32.933 34.676h4.419a.82.82 0 1 0 0-1.64h-4.42a.82.82 0 1 0 0 1.64Z" fill="#071F41"/><path d="M40.888 42.704a.82.82 0 0 0-.82.82v10.551a.285.285 0 0 1-.285.285H2.217a.285.285 0 0 1-.284-.285V35.922a.82.82 0 1 0-1.641 0v18.153c0 1.062.864 1.926 1.925 1.926h37.566a1.927 1.927 0 0 0 1.925-1.926V43.524a.82.82 0 0 0-.82-.82ZM39.783 27.843H26.24v-4.161c4.238-1.98 7.181-6.283 7.181-11.26C33.421 5.571 27.85 0 21 0c-2.377 0-4.688.674-6.682 1.949a12.452 12.452 0 0 0-4.5 5.057.82.82 0 0 0 1.476.716c1.82-3.751 5.54-6.081 9.706-6.081 5.945 0 10.78 4.836 10.78 10.78 0 5.945-4.835 10.781-10.78 10.781-5.945 0-10.78-4.836-10.78-10.78 0-.42.023-.842.071-1.255a.82.82 0 1 0-1.63-.189c-.054.476-.082.962-.082 1.444 0 4.977 2.943 9.28 7.181 11.26v4.16H2.217a1.927 1.927 0 0 0-1.925 1.926v2.306a.82.82 0 1 0 1.64 0v-2.306c0-.157.128-.285.285-.285h10.677l7.489 8.56a.821.821 0 0 0 1.234 0l7.49-8.56h10.676c.157 0 .284.128.284.285v9.906a.82.82 0 1 0 1.64 0v-9.906a1.927 1.927 0 0 0-1.924-1.925ZM21 36.256l-5.926-6.773h1.506a.82.82 0 0 0 .82-.82V24.31a12.38 12.38 0 0 0 3.6.532c1.251 0 2.46-.187 3.599-.532v4.352c0 .453.367.82.82.82h1.507L21 36.256Z" fill="#071F41"/><path d="M4.648 48.045h2.21a.82.82 0 1 0 0-1.64h-2.21a.82.82 0 1 0 0 1.64ZM12.603 46.404h-2.21a.82.82 0 1 0 0 1.64h2.21a.82.82 0 1 0 0-1.64ZM18.348 48.045a.82.82 0 1 0 0-1.64h-2.21a.82.82 0 1 0 0 1.64h2.21ZM24.093 48.045a.82.82 0 1 0 0-1.64h-2.21a.82.82 0 1 0 0 1.64h2.21ZM4.648 52.465h8.839a.82.82 0 1 0 0-1.64h-8.84a.82.82 0 1 0 0 1.64ZM27.693 49.434c0 1.671 1.36 3.03 3.03 3.03.87 0 1.656-.37 2.21-.96.553.59 1.338.96 2.21.96 1.67 0 3.03-1.359 3.03-3.03 0-1.67-1.36-3.03-3.03-3.03-.872 0-1.657.37-2.21.96a3.022 3.022 0 0 0-2.21-.96c-1.67 0-3.03 1.36-3.03 3.03Zm7.45-1.39a1.39 1.39 0 0 1 0 2.779 1.39 1.39 0 0 1-1.39-1.389c0-.766.623-1.39 1.39-1.39Zm-3.03 1.39a1.39 1.39 0 0 1-2.779 0c0-.766.623-1.39 1.389-1.39s1.39.624 1.39 1.39ZM18.282 16.715a.82.82 0 0 0-.898 1.372c1.061.694 1.785.9 2.721.952v.904a.82.82 0 1 0 1.641 0v-.97c1.86-.361 2.946-1.893 3.186-3.323.309-1.837-.652-3.434-2.448-4.07-.243-.085-.49-.175-.738-.269V7.377c.626.147.999.464 1.031.492a.82.82 0 0 0 1.107-1.21c-.047-.044-.84-.758-2.138-.951V4.9a.82.82 0 1 0-1.64 0v.87a5.08 5.08 0 0 0-.382.099c-1.182.356-2.066 1.368-2.305 2.641-.22 1.16.152 2.279.969 2.92.434.34.976.652 1.717.982v4.984c-.646-.046-1.09-.203-1.823-.681Zm1.119-6.576c-.333-.261-.475-.77-.37-1.325.094-.5.426-1.103 1.075-1.342v3.116a5.007 5.007 0 0 1-.705-.45Zm2.536 2.989c1.537.543 1.443 1.86 1.377 2.25-.128.764-.662 1.575-1.568 1.893V13.06l.191.069Z" fill="#071F41"/></svg>